<?xml version="1.0" standalone="no"?>
<!DOCTYPE svg PUBLIC "-//W3C//DTD SVG 20010904//EN"
 "http://www.w3.org/TR/2001/REC-SVG-20010904/DTD/svg10.dtd">
<svg version="1.0" xmlns="http://www.w3.org/2000/svg"
 width="500.000000pt" height="500.000000pt" viewBox="0 0 500.000000 500.000000"
 preserveAspectRatio="xMidYMid meet">

<g transform="translate(0.000000,500.000000) scale(0.100000,-0.100000)"
fill="#000000" stroke="none">
<path d="M2256 4030 c-129 -16 -254 -53 -270 -79 -9 -14 4 -41 20 -41 26 0 93
-39 104 -61 7 -11 10 -22 8 -23 -2 -2 -29 -8 -61 -15 -32 -7 -95 -31 -140 -54
-69 -34 -100 -59 -192 -152 -150 -152 -250 -216 -377 -239 -80 -15 -157 27
-189 101 -15 36 -23 44 -41 41 -17 -2 -27 -14 -36 -43 -27 -80 19 -236 95
-325 l35 -41 -20 -22 c-69 -73 -90 -243 -53 -423 30 -144 70 -264 143 -424 23
-50 27 -69 19 -80 -63 -86 -79 -152 -62 -255 14 -87 48 -157 101 -212 48 -50
87 -72 155 -88 l50 -12 7 -48 c27 -188 228 -374 508 -468 153 -52 246 -68 420
-74 243 -9 432 22 616 98 164 68 304 189 364 313 27 58 30 73 30 165 0 98 1
101 23 101 70 0 162 61 213 141 37 59 64 152 64 221 0 71 -32 155 -70 181
l-22 15 20 64 c43 131 56 226 57 393 0 121 -4 179 -18 238 -59 250 -193 427
-416 549 -35 18 -46 32 -56 63 -66 224 -340 416 -680 479 -107 20 -263 27
-349 16z m288 -1009 c75 -34 142 -92 186 -162 18 -27 38 -49 45 -49 7 0 29 22
49 50 78 108 180 136 268 74 52 -38 103 -131 119 -219 16 -85 6 -226 -21 -308
-28 -83 -81 -161 -137 -202 -75 -54 -52 -100 46 -93 75 5 188 59 259 123 l51
46 7 -46 c11 -76 8 -275 -5 -359 -11 -69 -11 -80 3 -94 13 -13 17 -13 32 -1
32 26 138 194 184 292 43 92 47 97 62 80 80 -88 26 -311 -93 -390 -36 -24 -52
-28 -100 -26 -32 1 -61 -2 -64 -7 -3 -5 -8 -69 -11 -141 -3 -93 -9 -140 -20
-162 -52 -101 -147 -188 -274 -252 -152 -76 -314 -113 -525 -122 -362 -14
-690 91 -875 280 -70 71 -110 149 -120 233 -11 84 -19 94 -88 94 -88 0 -158
58 -201 167 -39 100 -37 183 6 252 15 24 16 24 57 -50 77 -139 150 -251 174
-267 20 -13 25 -13 38 0 13 13 13 21 0 70 -27 105 -40 277 -28 373 7 49 14 90
17 93 3 3 22 -12 43 -32 77 -79 176 -130 266 -138 61 -5 67 18 24 83 -61 93
-80 160 -80 275 0 168 59 301 185 420 154 146 355 190 521 115z"/>
<path d="M2250 1415 c-21 -25 -3 -63 38 -82 29 -14 67 -17 187 -18 220 0 310
25 288 81 -7 18 -12 18 -193 -6 -102 -14 -206 -5 -257 21 -45 23 -47 23 -63 4z"/>
</g>
</svg>
